<mxfile host="65bd71144e">
    <diagram name="Page-1" id="LtSkvB7uPqlBQ3nZqWX6">
        <mxGraphModel dx="1211" dy="704" grid="1" gridSize="10" guides="1" tooltips="1" connect="1" arrows="1" fold="1" page="1" pageScale="1" pageWidth="850" pageHeight="1100" math="0" shadow="0">
            <root>
                <mxCell id="0"/>
                <mxCell id="1" parent="0"/>
                <mxCell id="uRjU0AcnzxCLm0jL9GGs-37" style="edgeStyle=none;rounded=0;orthogonalLoop=1;jettySize=auto;html=1;" parent="1" source="uRjU0AcnzxCLm0jL9GGs-32" target="uRjU0AcnzxCLm0jL9GGs-36" edge="1">
                    <mxGeometry relative="1" as="geometry"/>
                </mxCell>
                <mxCell id="uRjU0AcnzxCLm0jL9GGs-32" value="&lt;div&gt;5&lt;/div&gt;&lt;div&gt;10&lt;br&gt;&lt;/div&gt;" style="ellipse;whiteSpace=wrap;html=1;aspect=fixed;" parent="1" vertex="1">
                    <mxGeometry x="430" y="20" width="60" height="60" as="geometry"/>
                </mxCell>
                <mxCell id="uRjU0AcnzxCLm0jL9GGs-40" value="" style="edgeStyle=none;rounded=0;orthogonalLoop=1;jettySize=auto;html=1;" parent="1" source="uRjU0AcnzxCLm0jL9GGs-36" target="uRjU0AcnzxCLm0jL9GGs-39" edge="1">
                    <mxGeometry relative="1" as="geometry"/>
                </mxCell>
                <mxCell id="uRjU0AcnzxCLm0jL9GGs-36" value="12" style="ellipse;whiteSpace=wrap;html=1;aspect=fixed;" parent="1" vertex="1">
                    <mxGeometry x="430" y="110" width="60" height="60" as="geometry"/>
                </mxCell>
                <mxCell id="uRjU0AcnzxCLm0jL9GGs-42" value="" style="edgeStyle=none;rounded=0;orthogonalLoop=1;jettySize=auto;html=1;" parent="1" source="uRjU0AcnzxCLm0jL9GGs-39" target="uRjU0AcnzxCLm0jL9GGs-41" edge="1">
                    <mxGeometry relative="1" as="geometry"/>
                </mxCell>
                <mxCell id="uRjU0AcnzxCLm0jL9GGs-39" value="13" style="ellipse;whiteSpace=wrap;html=1;aspect=fixed;" parent="1" vertex="1">
                    <mxGeometry x="430" y="200" width="60" height="60" as="geometry"/>
                </mxCell>
                <mxCell id="uRjU0AcnzxCLm0jL9GGs-45" style="edgeStyle=none;rounded=0;orthogonalLoop=1;jettySize=auto;html=1;exitX=0;exitY=1;exitDx=0;exitDy=0;entryX=1;entryY=0;entryDx=0;entryDy=0;" parent="1" source="uRjU0AcnzxCLm0jL9GGs-41" target="uRjU0AcnzxCLm0jL9GGs-43" edge="1">
                    <mxGeometry relative="1" as="geometry"/>
                </mxCell>
                <mxCell id="2" style="edgeStyle=none;html=1;exitX=1;exitY=1;exitDx=0;exitDy=0;entryX=0;entryY=0;entryDx=0;entryDy=0;" edge="1" parent="1" source="uRjU0AcnzxCLm0jL9GGs-41" target="uRjU0AcnzxCLm0jL9GGs-51">
                    <mxGeometry relative="1" as="geometry"/>
                </mxCell>
                <mxCell id="uRjU0AcnzxCLm0jL9GGs-41" value="&lt;div&gt;14&lt;/div&gt;" style="ellipse;whiteSpace=wrap;html=1;aspect=fixed;" parent="1" vertex="1">
                    <mxGeometry x="430" y="290" width="60" height="60" as="geometry"/>
                </mxCell>
                <mxCell id="uRjU0AcnzxCLm0jL9GGs-68" style="edgeStyle=orthogonalEdgeStyle;curved=1;rounded=0;orthogonalLoop=1;jettySize=auto;html=1;exitX=0;exitY=0.5;exitDx=0;exitDy=0;entryX=0;entryY=0.5;entryDx=0;entryDy=0;" parent="1" source="uRjU0AcnzxCLm0jL9GGs-43" target="uRjU0AcnzxCLm0jL9GGs-67" edge="1">
                    <mxGeometry relative="1" as="geometry"/>
                </mxCell>
                <mxCell id="uRjU0AcnzxCLm0jL9GGs-43" value="&lt;div&gt;15&lt;/div&gt;&lt;div&gt;16&lt;br&gt;&lt;/div&gt;" style="ellipse;whiteSpace=wrap;html=1;aspect=fixed;" parent="1" vertex="1">
                    <mxGeometry x="350" y="370" width="60" height="60" as="geometry"/>
                </mxCell>
                <mxCell id="uRjU0AcnzxCLm0jL9GGs-54" value="" style="rounded=0;orthogonalLoop=1;jettySize=auto;html=1;" parent="1" source="uRjU0AcnzxCLm0jL9GGs-51" target="uRjU0AcnzxCLm0jL9GGs-53" edge="1">
                    <mxGeometry relative="1" as="geometry"/>
                </mxCell>
                <mxCell id="uRjU0AcnzxCLm0jL9GGs-51" value="&lt;div&gt;19&lt;/div&gt;&lt;div&gt;20&lt;/div&gt;" style="ellipse;whiteSpace=wrap;html=1;aspect=fixed;" parent="1" vertex="1">
                    <mxGeometry x="510" y="368.79" width="60" height="60" as="geometry"/>
                </mxCell>
                <mxCell id="uRjU0AcnzxCLm0jL9GGs-56" value="" style="edgeStyle=orthogonalEdgeStyle;curved=1;rounded=0;orthogonalLoop=1;jettySize=auto;html=1;" parent="1" source="uRjU0AcnzxCLm0jL9GGs-53" target="uRjU0AcnzxCLm0jL9GGs-55" edge="1">
                    <mxGeometry relative="1" as="geometry"/>
                </mxCell>
                <mxCell id="uRjU0AcnzxCLm0jL9GGs-65" style="edgeStyle=orthogonalEdgeStyle;curved=1;rounded=0;orthogonalLoop=1;jettySize=auto;html=1;exitX=1;exitY=0;exitDx=0;exitDy=0;entryX=1;entryY=0;entryDx=0;entryDy=0;" parent="1" source="uRjU0AcnzxCLm0jL9GGs-53" target="uRjU0AcnzxCLm0jL9GGs-36" edge="1">
                    <mxGeometry relative="1" as="geometry">
                        <Array as="points">
                            <mxPoint x="690" y="478"/>
                            <mxPoint x="690" y="119"/>
                        </Array>
                    </mxGeometry>
                </mxCell>
                <mxCell id="uRjU0AcnzxCLm0jL9GGs-53" value="22" style="ellipse;whiteSpace=wrap;html=1;aspect=fixed;" parent="1" vertex="1">
                    <mxGeometry x="510" y="468.79" width="60" height="60" as="geometry"/>
                </mxCell>
                <mxCell id="uRjU0AcnzxCLm0jL9GGs-58" value="" style="edgeStyle=orthogonalEdgeStyle;curved=1;rounded=0;orthogonalLoop=1;jettySize=auto;html=1;" parent="1" source="uRjU0AcnzxCLm0jL9GGs-55" target="uRjU0AcnzxCLm0jL9GGs-57" edge="1">
                    <mxGeometry relative="1" as="geometry"/>
                </mxCell>
                <mxCell id="uRjU0AcnzxCLm0jL9GGs-55" value="&lt;div&gt;23&lt;/div&gt;" style="ellipse;whiteSpace=wrap;html=1;aspect=fixed;" parent="1" vertex="1">
                    <mxGeometry x="510" y="568.79" width="60" height="60" as="geometry"/>
                </mxCell>
                <mxCell id="uRjU0AcnzxCLm0jL9GGs-60" value="" style="rounded=0;orthogonalLoop=1;jettySize=auto;html=1;" parent="1" source="uRjU0AcnzxCLm0jL9GGs-57" target="uRjU0AcnzxCLm0jL9GGs-59" edge="1">
                    <mxGeometry relative="1" as="geometry"/>
                </mxCell>
                <mxCell id="uRjU0AcnzxCLm0jL9GGs-63" style="edgeStyle=orthogonalEdgeStyle;curved=1;rounded=0;orthogonalLoop=1;jettySize=auto;html=1;entryX=1;entryY=0.5;entryDx=0;entryDy=0;exitX=1;exitY=0.5;exitDx=0;exitDy=0;" parent="1" source="uRjU0AcnzxCLm0jL9GGs-57" target="uRjU0AcnzxCLm0jL9GGs-53" edge="1">
                    <mxGeometry relative="1" as="geometry">
                        <Array as="points">
                            <mxPoint x="620" y="688.79"/>
                            <mxPoint x="620" y="498.78999999999996"/>
                        </Array>
                    </mxGeometry>
                </mxCell>
                <mxCell id="uRjU0AcnzxCLm0jL9GGs-57" value="&lt;div&gt;24&lt;/div&gt;" style="ellipse;whiteSpace=wrap;html=1;aspect=fixed;" parent="1" vertex="1">
                    <mxGeometry x="510" y="658.79" width="60" height="60" as="geometry"/>
                </mxCell>
                <mxCell id="uRjU0AcnzxCLm0jL9GGs-64" style="edgeStyle=orthogonalEdgeStyle;curved=1;rounded=0;orthogonalLoop=1;jettySize=auto;html=1;entryX=0;entryY=0.5;entryDx=0;entryDy=0;exitX=0;exitY=0.5;exitDx=0;exitDy=0;" parent="1" source="uRjU0AcnzxCLm0jL9GGs-59" target="uRjU0AcnzxCLm0jL9GGs-53" edge="1">
                    <mxGeometry relative="1" as="geometry"/>
                </mxCell>
                <mxCell id="uRjU0AcnzxCLm0jL9GGs-59" value="&lt;div&gt;27&lt;/div&gt;&lt;div&gt;28&lt;/div&gt;" style="ellipse;whiteSpace=wrap;html=1;aspect=fixed;" parent="1" vertex="1">
                    <mxGeometry x="430" y="738.79" width="60" height="60" as="geometry"/>
                </mxCell>
                <mxCell id="uRjU0AcnzxCLm0jL9GGs-73" style="rounded=0;orthogonalLoop=1;jettySize=auto;html=1;exitX=0;exitY=1;exitDx=0;exitDy=0;entryX=1;entryY=0;entryDx=0;entryDy=0;" parent="1" source="uRjU0AcnzxCLm0jL9GGs-67" target="uRjU0AcnzxCLm0jL9GGs-71" edge="1">
                    <mxGeometry relative="1" as="geometry"/>
                </mxCell>
                <mxCell id="uRjU0AcnzxCLm0jL9GGs-75" style="rounded=0;orthogonalLoop=1;jettySize=auto;html=1;exitX=1;exitY=1;exitDx=0;exitDy=0;entryX=0;entryY=0;entryDx=0;entryDy=0;" parent="1" source="uRjU0AcnzxCLm0jL9GGs-67" target="uRjU0AcnzxCLm0jL9GGs-74" edge="1">
                    <mxGeometry relative="1" as="geometry"/>
                </mxCell>
                <mxCell id="uRjU0AcnzxCLm0jL9GGs-67" value="33" style="ellipse;whiteSpace=wrap;html=1;aspect=fixed;" parent="1" vertex="1">
                    <mxGeometry x="425" y="890" width="60" height="60" as="geometry"/>
                </mxCell>
                <mxCell id="uRjU0AcnzxCLm0jL9GGs-70" style="edgeStyle=orthogonalEdgeStyle;curved=1;rounded=0;orthogonalLoop=1;jettySize=auto;html=1;entryX=0.017;entryY=0.7;entryDx=0;entryDy=0;entryPerimeter=0;exitX=0;exitY=0.5;exitDx=0;exitDy=0;" parent="1" source="uRjU0AcnzxCLm0jL9GGs-36" target="uRjU0AcnzxCLm0jL9GGs-67" edge="1">
                    <mxGeometry relative="1" as="geometry">
                        <Array as="points">
                            <mxPoint x="270" y="140"/>
                            <mxPoint x="270" y="932"/>
                        </Array>
                    </mxGeometry>
                </mxCell>
                <mxCell id="uRjU0AcnzxCLm0jL9GGs-71" value="34" style="ellipse;whiteSpace=wrap;html=1;aspect=fixed;" parent="1" vertex="1">
                    <mxGeometry x="350" y="960" width="60" height="60" as="geometry"/>
                </mxCell>
                <mxCell id="uRjU0AcnzxCLm0jL9GGs-74" value="&lt;div&gt;36&lt;/div&gt;&lt;div&gt;38&lt;/div&gt;" style="ellipse;whiteSpace=wrap;html=1;aspect=fixed;" parent="1" vertex="1">
                    <mxGeometry x="500" y="960" width="60" height="60" as="geometry"/>
                </mxCell>
            </root>
        </mxGraphModel>
    </diagram>
</mxfile>